<svg id="account" xmlns="http://www.w3.org/2000/svg" width="15.001" height="17.6" viewBox="0 0 15.001 17.6">
    <defs>
        <style>
            .cls-3{stroke:none}
        </style>
    </defs>
    <g id="타원_1" data-name="타원 1" transform="translate(4.032)" style="stroke:#000;stroke-miterlimit:10;fill:none">
        <circle class="cls-3" cx="3.5" cy="3.5" r="3.5"/>
        <circle cx="3.5" cy="3.5" r="3" style="fill:none"/>
    </g>
    <g id="빼기_1" data-name="빼기 1" style="fill:none">
        <path class="cls-3" d="M5929.969 4802h-14.664a8.563 8.563 0 0 1-.1-1.93v-.175a6.57 6.57 0 0 1 2.213-5 7.991 7.991 0 0 1 5.319-1.894 7.884 7.884 0 0 1 5.287 1.894 6.6 6.6 0 0 1 2.181 5 5.6 5.6 0 0 1-.232 2.1z" transform="translate(-5915.201 -4784.4)"/>
        <path d="M5929.169 4801c.022-.278.033-.647.033-1.104 0-1.68-.657-3.19-1.848-4.256-1.183-1.057-2.824-1.64-4.62-1.64-1.804 0-3.458.583-4.658 1.644-1.209 1.068-1.875 2.578-1.875 4.252v.18c0 .346 0 .66.005.924h5.762c.222-.002.457-.002.68 0h6.52m.8 1h-7.324c-.22-.002-.452-.002-.672 0h-6.667c-.105-.368-.104-.956-.104-1.93v-.174c0-1.965.786-3.74 2.213-5.002 1.383-1.221 3.273-1.894 5.32-1.894 2.042 0 3.92.673 5.287 1.894 1.406 1.258 2.18 3.034 2.18 5.002 0 1.001-.038 1.703-.232 2.104z" style="fill:#000;stroke:none" transform="translate(-5915.201 -4784.4)"/>
    </g>
</svg>
