<?xml version="1.0" standalone="no"?>
<!DOCTYPE svg PUBLIC "-//W3C//DTD SVG 20010904//EN"
 "http://www.w3.org/TR/2001/REC-SVG-20010904/DTD/svg10.dtd">
<svg version="1.0" xmlns="http://www.w3.org/2000/svg"
 width="45.000000pt" height="54.000000pt" viewBox="0 0 45.000000 54.000000"
 preserveAspectRatio="xMidYMid meet">

<g transform="translate(0.000000,54.000000) scale(0.100000,-0.100000)"
fill="#000000" stroke="none">
<path d="M171 528 c-44 -24 -65 -63 -69 -133 l-4 -65 -43 0 c-40 0 -43 -2 -49
-31 -35 -174 55 -293 219 -293 164 0 254 119 219 293 -6 29 -9 31 -50 31 l-44
0 0 43 c0 60 -16 110 -44 136 -30 28 -100 38 -135 19z m101 -29 c27 -14 48
-69 48 -124 l0 -45 -95 0 -95 0 0 45 c0 54 21 109 47 124 24 14 69 14 95 0z
m146 -259 c2 -33 -3 -71 -13 -97 -55 -143 -292 -149 -356 -10 -18 41 -26 146
-12 161 4 3 90 5 192 4 l186 -3 3 -55z"/>
</g>
</svg>
