<svg data-name="그룹 55" xmlns="http://www.w3.org/2000/svg" width="12.002" height="12.002" viewBox="0 0 12.002 12.002">
    <path data-name="패스 56" d="M8.755 0H3.247A3.247 3.247 0 0 0 0 3.247v5.506A3.247 3.247 0 0 0 3.247 12h5.508A3.247 3.247 0 0 0 12 8.753V3.245A3.247 3.247 0 0 0 8.755 0zM6 9.301a3.3 3.3 0 0 1-3.3-3.3 3.3 3.3 0 0 1 3.3-3.3 3.3 3.3 0 0 1 3.3 3.3 3.3 3.3 0 0 1-3.3 3.3zm3.848-6.265a.718.718 0 0 1-.718-.718.718.718 0 0 1 .718-.718.718.718 0 0 1 .718.718.718.718 0 0 1-.717.718z"/>
    <circle data-name="타원 3" cx="1.898" cy="1.898" r="1.898" transform="rotate(-45 8.902 -1.003)"/>
</svg>
