<svg xmlns="http://www.w3.org/2000/svg" width="119.533" height="30" viewBox="0 0 119.533 30">
    <path data-name="패스 115" d="M1.321 0c.544 0 .777.339 1.67.339C3.691.339 4.467 0 5.05 0s.66.424.66 1.1c0 2.246-.117 4.789-.117 6.78v10l4.583-5.636a2.364 2.364 0 0 0 .621-1.186.626.626 0 0 0-.583-.636c-.272 0-.427.127-.7.127a1.262 1.262 0 0 1-1.282-1.4 1.439 1.439 0 0 1 1.321-1.568c.971 0 1.9.424 3.263.424 1.126 0 2.292-.424 3.069-.424a1.411 1.411 0 0 1 1.282 1.568 1.35 1.35 0 0 1-1.126 1.4 6.508 6.508 0 0 0-.893-.127c-.35.043-.971.72-1.864 1.822l-2.214 2.712c-.583.72-.816 1.1-.816 1.314a6.021 6.021 0 0 0 .7 1.61l3.3 6.4c1.088 2.119 1.282 2.416 2.02 2.416.311 0 .466-.17.777-.17.621 0 1.049.636 1.049 1.526a1.273 1.273 0 0 1-1.243 1.441c-1.2 0-2.02-.382-3.224-.382s-2.059.382-2.952.382a1.314 1.314 0 0 1-1.243-1.441c0-.975.5-1.526 1.049-1.526.233 0 .544.17.777.17a.525.525 0 0 0 .5-.594c0-.3-.039-.424-.621-1.568l-2.059-4.153c-.427-.89-.893-1.568-1.126-1.568-.117 0-.233.085-.816.805l-1.01 1.229a2.932 2.932 0 0 0-.544 2.161c0 3.39-.039 3.687.738 3.687.272 0 .544-.17.855-.17.621 0 1.01.636 1.01 1.526a1.278 1.278 0 0 1-1.243 1.441c-.621 0-1.515-.382-2.719-.382-1.243 0-2.136.382-2.991.382a1.278 1.278 0 0 1-1.243-1.441c0-.89.388-1.526 1.088-1.526.311 0 .544.17.816.17.816 0 .932-.381.932-6.23V9.874c0-2.712-.039-5.255-.155-6.018-.078-.593-.272-1.059-.66-1.059-.35 0-.466.169-.855.169-.7 0-1.165-.381-1.165-1.356C.001.551.501 0 1.321 0z"/>
    <path data-name="패스 116" d="M34.731 9.219c4.195 0 7.147 3.806 7.147 10.332 0 7.069-3.34 10.332-7.108 10.332-4.156 0-7.186-3.69-7.186-10.332 0-6.797 3.069-10.332 7.147-10.332zm.078 17.984c2.836 0 4.234-3.457 4.234-7.652 0-5.283-1.981-7.652-4.272-7.652-2.6 0-4.35 2.913-4.35 7.652-.001 4.894 1.902 7.652 4.388 7.652z"/>
    <path data-name="패스 117" d="M54.03 18.464c0-2.486-.039-4.816-.155-5.516-.078-.544-.272-.932-.66-.932s-.466.117-.893.117a1.125 1.125 0 0 1-1.165-1.282 1.26 1.26 0 0 1 1.321-1.437 15.743 15.743 0 0 0 1.709.311c.7 0 1.476-.311 2.059-.311s.66.388.66 1.01c0 2.059-.117 4.389-.117 6.215v4.312c0 4.117.816 6.137 3.5 6.137 2.6 0 3.923-2.137 3.923-7.5v-1.124c0-2.486-.039-4.816-.155-5.516-.077-.544-.272-.932-.66-.932s-.466.117-.893.117a1.118 1.118 0 0 1-1.165-1.282 1.287 1.287 0 0 1 1.282-1.437c.738 0 .738.311 1.748.311.7 0 1.476-.311 2.058-.311s.66.388.66 1.01c0 2.059-.116 4.389-.116 6.215v5.127a33.2 33.2 0 0 0 .155 4.2c.078.544.233.971.66.971.272 0 .621-.156.893-.156.777 0 1.165.505 1.165 1.282a1.322 1.322 0 0 1-1.243 1.437c-.505 0-1.165-.311-1.787-.311-.777 0-1.515.311-1.942.311-.466 0-.661-.194-.661-1.165v-.894a4.985 4.985 0 0 1-4.428 2.447 5.846 5.846 0 0 1-5.088-2.952c-.66-1.4-.66-2.408-.66-5.554z"/>
    <path data-name="패스 118" d="M81.655 14.425c-.621-1.981-.816-2.408-1.476-2.408-.272 0-.582.117-.893.117a1.191 1.191 0 0 1-1.088-1.282 1.34 1.34 0 0 1 1.243-1.437c.971 0 1.9.311 3.069.311 1.087 0 2.641-.311 3.068-.311a1.309 1.309 0 0 1 1.282 1.437 1.229 1.229 0 0 1-1.2 1.282c-.272 0-.544-.117-.777-.117-.583 0-.7.311-.7.7a7.485 7.485 0 0 0 .311 1.437l3.146 11.42h.078l3.146-11.42a5.9 5.9 0 0 0 .311-1.476c0-.66-.466-.66-.7-.66s-.466.117-.777.117a1.229 1.229 0 0 1-1.2-1.282 1.382 1.382 0 0 1 1.243-1.437c1.01 0 1.9.311 3.069.311 1.4 0 2.059-.311 3.107-.311.621 0 1.243.388 1.243 1.437a1.217 1.217 0 0 1-1.088 1.282c-.311 0-.544-.117-.893-.117-.66 0-.932.621-1.476 2.408l-4.128 13.283c-.35 1.165-.66 2.292-1.942 2.292-1.2 0-1.554-1.282-1.864-2.292z"/>
    <path data-name="패스 119" d="M110.288 20.059c-1.359 0-1.437.194-1.437 1.087 0 3.768 1.67 6.021 4.078 6.021a3.839 3.839 0 0 0 3.418-2.835c.544-1.515.7-2.447 1.67-2.447a1.307 1.307 0 0 1 1.282 1.437c-.039 2.1-1.826 6.564-6.448 6.564-5.011 0-6.953-5.088-6.953-10.177 0-7.07 3.612-10.487 7.264-10.487 3.962 0 6.37 4 6.37 8.584 0 2.253-.272 2.253-1.321 2.253zm4.894-2.641c1.36 0 1.4-.194 1.4-.932 0-2.02-1.088-4.545-3.573-4.545-2.991 0-3.962 3.535-3.962 4.739 0 .7.466.738 1.049.738z"/>
</svg>
